<?xml version="1.0" encoding="utf-8"?>
<!-- Generator: Adobe Illustrator 28.0.0, SVG Export Plug-In . SVG Version: 6.00 Build 0)  -->
<svg version="1.1" id="Layer_1" xmlns="http://www.w3.org/2000/svg" xmlns:xlink="http://www.w3.org/1999/xlink" x="0px" y="0px"
	 viewBox="0 0 4026.92 1302.51" style="enable-background:new 0 0 4026.92 1302.51;" xml:space="preserve">
<style type="text/css">
	.hunter-blue{fill:#006488;}
	.pure-white{fill:#FFFFFF;}
	.light-blue{fill:#4CC0EF;}
</style>
<g>
	<path class="hunter-blue" d="M268.62,226.44c0,0-2.36,40.44-49.92,89.3c0,0-79.26,94.35-84.54,139.84c0,0-4.11,25.83-5.87,48.86v518.38
		c0,0,8.81,99.41,51.08,133.11c0,0,41.1,43.81,139.73,50.55c154.44,8.21,305.91,8.18,460.27,0c98.63-6.74,139.73-50.55,139.73-50.55
		c42.27-33.7,51.08-133.11,51.08-133.11V504.45c-1.76-23.03-5.87-48.86-5.87-48.86c-5.28-45.49-84.54-139.84-84.54-139.84
		c-47.55-48.86-49.92-89.3-49.92-89.3"/>
	<g>
		<path class="pure-white" d="M618.72,366.79V196.54h-17.63l0,162.94l-95.38,95.38l0,62.46c-15.66,3.95-27.3,18.02-27.3,34.91
			c0,19.95,16.17,36.12,36.12,36.12c19.95,0,36.12-16.17,36.12-36.12c0-16.89-11.64-30.96-27.3-34.91v-55.16L618.72,366.79z
			 M530.8,552.24c0,8.99-7.29,16.27-16.27,16.27c-8.99,0-16.28-7.28-16.28-16.27c0-8.99,7.29-16.28,16.28-16.28
			C523.51,535.96,530.8,543.25,530.8,552.24z"/>
		<path class="pure-white" d="M274.5,393.91c0,19.95,16.17,36.12,36.12,36.12c19.95,0,36.12-16.17,36.12-36.12
			c0-6.77-1.98-13.02-5.21-18.44l41.76-41.76l0-137.17h-17.63l0,129.86L329.05,363c-5.41-3.24-11.67-5.22-18.44-5.22
			C290.67,357.78,274.5,373.95,274.5,393.91z M294.34,393.91c0-8.99,7.29-16.28,16.28-16.28c8.99,0,16.28,7.29,16.28,16.28
			s-7.29,16.28-16.28,16.28C301.63,410.18,294.34,402.89,294.34,393.91z"/>
		<path class="pure-white" d="M787.84,357.78c-6.77,0-13.02,1.98-18.44,5.22l-36.59-36.59l0-129.86h-17.63l0,137.17l41.76,41.76
			c-3.24,5.42-5.21,11.67-5.21,18.44c0,19.95,16.17,36.12,36.12,36.12c19.95,0,36.12-16.17,36.12-36.12
			C823.96,373.95,807.79,357.78,787.84,357.78z M787.84,410.18c-8.99,0-16.28-7.29-16.28-16.28s7.29-16.28,16.28-16.28
			c8.99,0,16.28,7.29,16.28,16.28S796.83,410.18,787.84,410.18z"/>
		<path class="pure-white" d="M762.27,487.82c-6.77,0-13.02,1.98-18.44,5.22L676.9,426.1l0-241.82h-17.63l0,368.6
			c-15.66,3.96-27.3,18.02-27.3,34.91c0,19.95,16.17,36.12,36.12,36.12c19.95,0,36.12-16.17,36.12-36.12
			c0-16.89-11.64-30.95-27.3-34.91l0-101.84l54.46,54.46c-3.24,5.41-5.22,11.67-5.22,18.44c0,19.95,16.17,36.12,36.12,36.12
			c19.95,0,36.12-16.17,36.12-36.12C798.39,503.99,782.22,487.82,762.27,487.82z M762.27,540.21c-8.99,0-16.28-7.28-16.28-16.27
			c0-8.99,7.29-16.28,16.28-16.28c8.99,0,16.27,7.28,16.27,16.28C778.55,532.93,771.26,540.21,762.27,540.21z"/>
		<path class="pure-white" d="M438.51,333.53l-66.11,66.11l0,77.16c-15.66,3.95-27.3,18.02-27.3,34.91c0,22.5,20.59,40.21,43.96,35.29
			c14.02-2.95,25.17-14.55,27.68-28.66c3.52-19.74-9.03-37.08-26.71-41.55v-69.86l66.1-66.11l0-144.29h-17.63L438.51,333.53z"/>
		<path class="pure-white" d="M550.48,343.5c0-16.89-11.64-30.96-27.3-34.91V196.54h-17.63l0,112.05h0c-15.66,3.95-27.3,18.02-27.3,34.91
			c0,19.95,16.17,36.12,36.12,36.12C534.3,379.62,550.48,363.45,550.48,343.5z"/>
	</g>
	<g>
		<polygon class="pure-white" points="534.81,836.15 563.58,836.15 563.58,700.49 692.24,700.49 692.24,1032.82 563.58,1032.82 
			563.58,869.14 534.89,869.14 534.89,1032.82 406.22,1032.82 406.22,700.49 534.89,700.49 		"/>
	</g>
	<path class="hunter-blue" d="M390.26,93.6c-58.55,2.63-158.68,9.06-189.9,23.06v121.89c11.58,5.2,72.31,23.93,348.87,26.38
		c276.57-2.45,337.3-21.19,348.88-26.38V116.66c-31.22-14.01-131.35-20.44-189.9-23.06c-81.68-3.66-158.21-3.71-158.98-3.71
		C548.47,89.89,471.93,89.93,390.26,93.6z"/>
</g>
<g>
	<g>
		<path class="pure-white" d="M1469.17,949.29c0,0-62.61,42.19-154.49,42.19c-105.49,0-193.96-55.13-193.96-219.82
			c0-153.13,76.22-213.7,189.88-213.7c106.17,0,169.46,52.41,169.46,203.49h-123.86v-19.74c0-51.04-13.61-74.18-60.57-74.18
			c-40.15,0-53.76,17.01-53.76,49.68v110.26c0,31.3,15.65,49,59.21,49c62.61,0,168.1-36.75,168.1-36.75V949.29z"/>
		<path class="pure-white" d="M1884.99,983.32h-126.59l-14.29-66.69h-101.4l-14.29,66.69h-110.25l101.4-415.14h171.5L1884.99,983.32z
			 M1731.18,856.05l-37.43-176.95l-37.43,176.95H1731.18z"/>
		<path class="pure-white" d="M2206.22,879.87v-311.7h104.13v415.14h-185.11l-81.67-311.7v311.7h-104.13V568.17h185.11L2206.22,879.87z"/>
		<path class="pure-white" d="M2658.79,879.87v-311.7h104.13v415.14H2577.8l-81.67-311.7v311.7h-104.13V568.17h185.11L2658.79,879.87z"/>
		<path class="pure-white" d="M2844.58,568.17h289.92v108.89h-168.78v60.57h132.03v60.57h-132.03v72.82h171.5v112.29h-292.64V568.17z"/>
		<path class="pure-white" d="M3404,983.32l-80.99-170.82v170.82h-121.14V568.17h159.93c68.74,0,104.81,10.21,131.35,34.71
			c19.74,18.38,33.35,42.88,33.35,80.99c0,52.41-25.86,93.24-83.03,112.29l106.85,187.16H3404z M3323.01,768.25
			c0,0,12.25,4.09,28.58,4.09c28.58,0,49-12.25,49-53.08c0-31.31-11.57-51.73-49.68-51.73h-27.9V768.25z"/>
		<path class="pure-white" d="M3798.74,568.17h111.61l-129.31,240.24v174.9H3659.9V817.94l-135.43-249.77h136.79l70.78,146.32
			L3798.74,568.17z"/>
	</g>
	<g>
		<path class="pure-white" d="M1120.72,358.32v-47.29h137v47.29h-42.99v127.54h-51.02V358.32H1120.72z"/>
		<path class="pure-white" d="M1367.5,382.4v-71.37h51.02v174.83h-51.02V407.9h-38.69v77.96h-51.02V311.03h51.02v71.37H1367.5z"/>
		<path class="pure-white" d="M1452.91,311.03h122.1v45.86h-71.08v25.51h55.6v25.51h-55.6v30.67h72.23v47.29h-123.24V311.03z"/>
	</g>
</g>
</svg>
