<?xml version="1.0" encoding="utf-8"?>
<!-- convert to favicon.ico with: convert favicon.svg -background white -resize 32x32 -gravity center -extent 32x32 favicon.ico -->
<!-- Generator: Adobe Illustrator 28.0.0, SVG Export Plug-In . SVG Version: 6.00 Build 0)  -->
<svg version="1.1" id="Layer_1" xmlns="http://www.w3.org/2000/svg" xmlns:xlink="http://www.w3.org/1999/xlink" x="0px" y="0px"
	 viewBox="0 0 1142.97 1343.12" style="enable-background:new 0 0 1142.97 1343.12;" xml:space="preserve">
<style type="text/css">
	.hunter-blue{fill:#006488;}
	.white-color{fill:#FFFFFF;}
	.light-blue{fill:#4CC0EF;}
</style>
<g>
	<path class="hunter-blue" d="M290.87,246.75c0,0-2.36,40.44-49.92,89.3c0,0-79.26,94.35-84.54,139.84c0,0-4.11,25.83-5.87,48.86v518.38
		c0,0,8.81,99.41,51.08,133.11c0,0,41.1,43.81,139.73,50.55c154.44,8.21,305.91,8.18,460.27,0c98.63-6.74,139.73-50.55,139.73-50.55
		c42.27-33.7,51.08-133.11,51.08-133.11V524.75c-1.76-23.03-5.87-48.86-5.87-48.86c-5.28-45.49-84.54-139.84-84.54-139.84
		c-47.55-48.86-49.92-89.3-49.92-89.3"/>
	<g>
		<polygon class="light-blue" points="557.07,856.45 585.83,856.45 585.83,720.79 714.5,720.79 714.5,1053.12 585.83,1053.12 
			585.83,889.45 557.14,889.45 557.14,1053.12 428.47,1053.12 428.47,720.79 557.14,720.79 		"/>
	</g>
	<path class="hunter-blue" d="M412.51,113.9c-58.55,2.63-158.68,9.06-189.9,23.06v121.89c11.58,5.2,72.31,23.93,348.87,26.38
		c276.57-2.45,337.3-21.19,348.88-26.38V136.97c-31.22-14.01-131.35-20.44-189.9-23.06c-81.68-3.66-158.21-3.71-158.98-3.71
		C570.72,110.19,494.19,110.24,412.51,113.9z"/>
</g>
</svg>
