<?xml version="1.0" encoding="utf-8"?>
<!-- Generator: Adobe Illustrator 28.0.0, SVG Export Plug-In . SVG Version: 6.00 Build 0)  -->
<svg version="1.1" id="Layer_1" xmlns="http://www.w3.org/2000/svg" xmlns:xlink="http://www.w3.org/1999/xlink" x="0px" y="0px"
	 viewBox="0 0 1711.86 1750" style="enable-background:new 0 0 1711.86 1750;" xml:space="preserve">
<style type="text/css">
	.st0{fill:#006488;}
	.st1{fill:#FFFFFF;}
	.st2{fill:#4CC0EF;}
</style>
<g>
	<path class="st0" d="M575.32,296.39c0,0-2.36,40.44-49.92,89.3c0,0-79.26,94.35-84.54,139.84c0,0-4.11,25.83-5.87,48.86v518.38
		c0,0,8.81,99.41,51.08,133.11c0,0,41.1,43.81,139.73,50.55c154.44,8.21,305.91,8.18,460.27,0c98.63-6.74,139.73-50.55,139.73-50.55
		c42.27-33.7,51.08-133.11,51.08-133.11V574.4c-1.76-23.03-5.87-48.86-5.87-48.86c-5.28-45.49-84.54-139.84-84.54-139.84
		c-47.55-48.86-49.92-89.3-49.92-89.3"/>
	<g>
		<path class="st1" d="M925.41,436.74l0-170.25h-17.63l0,162.94l-95.38,95.38l0,62.46c-15.66,3.95-27.3,18.02-27.3,34.91
			c0,19.95,16.17,36.12,36.12,36.12c19.95,0,36.12-16.17,36.12-36.12c0-16.89-11.64-30.96-27.3-34.91v-55.16L925.41,436.74z
			 M837.5,622.19c0,8.99-7.29,16.27-16.27,16.27c-8.99,0-16.28-7.28-16.28-16.27c0-8.99,7.29-16.28,16.28-16.28
			C830.21,605.91,837.5,613.2,837.5,622.19z"/>
		<path class="st1" d="M581.2,463.86c0,19.95,16.17,36.12,36.12,36.12c19.95,0,36.12-16.17,36.12-36.12
			c0-6.77-1.98-13.02-5.21-18.44l41.76-41.76l0-137.17h-17.63l0,129.86l-36.59,36.59c-5.41-3.24-11.67-5.22-18.44-5.22
			C597.37,427.73,581.2,443.9,581.2,463.86z M601.04,463.86c0-8.99,7.29-16.28,16.28-16.28c8.99,0,16.28,7.29,16.28,16.28
			s-7.29,16.28-16.28,16.28C608.33,480.13,601.04,472.84,601.04,463.86z"/>
		<path class="st1" d="M1094.54,427.73c-6.77,0-13.02,1.98-18.44,5.22l-36.59-36.59V266.49h-17.63l0,137.17l41.76,41.76
			c-3.24,5.42-5.21,11.67-5.21,18.44c0,19.95,16.17,36.12,36.12,36.12c19.95,0,36.12-16.17,36.12-36.12
			C1130.66,443.9,1114.49,427.73,1094.54,427.73z M1094.54,480.13c-8.99,0-16.28-7.29-16.28-16.28s7.29-16.28,16.28-16.28
			c8.99,0,16.28,7.29,16.28,16.28S1103.53,480.13,1094.54,480.13z"/>
		<path class="st1" d="M1068.97,557.77c-6.77,0-13.02,1.98-18.44,5.22l-66.93-66.94l0-241.82h-17.63l0,368.6
			c-15.66,3.96-27.3,18.02-27.3,34.91c0,19.95,16.17,36.12,36.12,36.12s36.12-16.17,36.12-36.12c0-16.89-11.64-30.95-27.3-34.91
			l0-101.84l54.46,54.46c-3.24,5.41-5.22,11.67-5.22,18.44c0,19.95,16.17,36.12,36.12,36.12c19.95,0,36.12-16.17,36.12-36.12
			C1105.09,573.94,1088.92,557.77,1068.97,557.77z M1068.97,610.16c-8.99,0-16.28-7.28-16.28-16.27c0-8.99,7.29-16.28,16.28-16.28
			c8.99,0,16.27,7.28,16.27,16.28C1085.25,602.88,1077.96,610.16,1068.97,610.16z"/>
		<path class="st1" d="M745.21,403.48l-66.11,66.11v77.16c-15.66,3.95-27.3,18.02-27.3,34.91c0,22.5,20.59,40.21,43.96,35.29
			c14.02-2.95,25.17-14.55,27.68-28.66c3.52-19.74-9.03-37.08-26.71-41.55v-69.86l66.1-66.11V266.49h-17.63L745.21,403.48z"/>
		<path class="st1" d="M857.17,413.45c0-16.89-11.64-30.96-27.3-34.91l0-112.05h-17.63v112.05h0c-15.66,3.95-27.3,18.02-27.3,34.91
			c0,19.95,16.17,36.12,36.12,36.12C841,449.57,857.17,433.4,857.17,413.45z"/>
	</g>
	<g>
		<polygon class="st2" points="841.51,906.1 870.28,906.1 870.28,770.44 998.94,770.44 998.94,1102.77 870.28,1102.77 
			870.28,939.09 841.59,939.09 841.59,1102.77 712.92,1102.77 712.92,770.44 841.59,770.44 		"/>
	</g>
	<path class="st2" d="M696.95,163.55c-58.55,2.63-158.68,9.06-189.9,23.06V308.5c11.58,5.2,72.31,23.93,348.87,26.38
		c276.57-2.45,337.3-21.19,348.88-26.38V186.61c-31.22-14.01-131.35-20.44-189.9-23.06c-81.68-3.66-158.21-3.71-158.98-3.71
		C855.17,159.84,778.63,159.88,696.95,163.55z"/>
	<g>
		<g>
			<path class="st2" d="M327.97,1568.87c0,0-31.59,21.29-77.95,21.29c-53.23,0-97.87-27.81-97.87-110.91
				c0-77.26,38.46-107.82,95.81-107.82c53.57,0,85.5,26.44,85.5,102.68h-62.5v-9.96c0-25.75-6.87-37.43-30.56-37.43
				c-20.26,0-27.13,8.58-27.13,25.07v55.63c0,15.79,7.9,24.72,29.87,24.72c31.59,0,84.82-18.54,84.82-18.54V1568.87z"/>
			<path class="st2" d="M537.78,1586.04h-63.87l-7.21-33.65h-51.17l-7.21,33.65h-55.63l51.17-209.47h86.54L537.78,1586.04z
				 M460.17,1521.83l-18.89-89.28l-18.89,89.28H460.17z"/>
			<path class="st2" d="M699.86,1533.84v-157.27h52.54v209.47h-93.4l-41.21-157.27v157.27h-52.54v-209.47h93.4L699.86,1533.84z"/>
			<path class="st2" d="M928.21,1533.84v-157.27h52.54v209.47h-93.4l-41.21-157.27v157.27H793.6v-209.47H887L928.21,1533.84z"/>
			<path class="st2" d="M1021.95,1376.57h146.28v54.94h-85.16v30.56h66.62v30.56h-66.62v36.74h86.53v56.66h-147.66V1376.57z"/>
			<path class="st2" d="M1304.22,1586.04l-40.86-86.19v86.19h-61.12v-209.47h80.7c34.68,0,52.88,5.15,66.27,17.51
				c9.96,9.27,16.83,21.63,16.83,40.86c0,26.44-13.05,47.04-41.89,56.66l53.91,94.43H1304.22z M1263.36,1477.53
				c0,0,6.18,2.06,14.42,2.06c14.42,0,24.72-6.18,24.72-26.78c0-15.8-5.84-26.1-25.07-26.1h-14.08V1477.53z"/>
			<path class="st2" d="M1503.39,1376.57h56.32l-65.24,121.22v88.25h-61.12v-83.44L1365,1376.57h69.02l35.71,73.83L1503.39,1376.57z
				"/>
		</g>
		<g>
			<path class="st2" d="M152.15,1270.69v-23.86h69.13v23.86h-21.69v64.35h-25.74v-64.35H152.15z"/>
			<path class="st2" d="M276.67,1282.84v-36.01h25.74v88.21h-25.74v-39.33h-19.52v39.33H231.4v-88.21h25.74v36.01H276.67z"/>
			<path class="st2" d="M319.76,1246.83h61.61v23.14h-35.86v12.87h28.06v12.87h-28.06v15.47h36.44v23.86h-62.18V1246.83z"/>
		</g>
	</g>
</g>
</svg>
