<?xml version="1.0" encoding="utf-8"?>
<svg width="1200pt" height="1200pt" version="1.1" viewBox="0 0 1200 1200" xmlns="http://www.w3.org/2000/svg">
  <g>
    <path d="m906.73 230.93h-613.47c-48.84 83.562-82.254 175.23-98.641 270.62v609.2c0 19.672 7.8125 38.539 21.723 52.449 13.91 13.91 32.781 21.727 52.453 21.723h662.4c19.672 0.003906 38.543-7.8125 52.453-21.723 13.91-13.91 21.723-32.777 21.723-52.449v-609.2c-16.387-95.391-49.801-187.05-98.641-270.62z" style="fill: rgb(43, 101, 134);"/>
    <path d="m907.51 69.141c0-14.34-5.6953-28.09-15.836-38.23s-23.891-15.836-38.23-15.836h-506.89c-14.34 0-28.09 5.6953-38.23 15.836s-15.836 23.891-15.836 38.23v11.762c7.5078 0.45312 15.082 0.90625 22.652 1.293 46.344 2.5898 93.074 3.8828 140.2 3.8828h0.003906c89.121 0.078125 178.18-4.6289 266.8-14.109 6.8789-0.73438 13.625 2.2461 17.715 7.8203 4.0898 5.5781 4.9023 12.91 2.1328 19.25-2.7695 6.3359-8.7031 10.719-15.574 11.508-90.035 9.625-180.52 14.422-271.07 14.367-47.055 0-93.785-1.25-140.2-3.7539-7.5742-0.38672-15.145-0.83984-22.652-1.3594v68.352h615.02z" style="fill: rgb(43, 101, 134);"/>
  </g>
  <path d="M 657.586 683.089 L 657.748 799.593 L 548.803 798.839 L 548.803 1043.883 L 346.511 1043.883 L 346.511 436.205 L 548.803 436.205 L 548.803 682.887 L 657.586 683.089 Z M 657.339 432.709 L 853.489 432.709 L 853.489 1043.786 L 657.339 1043.786 L 657.339 432.709 Z" style="fill: rgb(255, 255, 255);"/>
</svg>